<svg width="71" height="71" viewBox="0 0 71 71" fill="none" xmlns="http://www.w3.org/2000/svg">
<circle cx="35.5" cy="35.5" r="32.5" stroke="#FF0000" stroke-width="6"/>
<path d="M24.2017 50V20.9091H36.2188C38.3968 20.9091 40.2765 21.3021 41.858 22.0881C43.4489 22.8646 44.6752 23.982 45.5369 25.4403C46.3987 26.8892 46.8295 28.608 46.8295 30.5966C46.8295 32.6136 46.3892 34.3277 45.5085 35.7386C44.6278 37.1402 43.3778 38.2102 41.7585 38.9489C40.1392 39.678 38.2216 40.0426 36.0057 40.0426H28.4062V34.5028H34.6989C35.7595 34.5028 36.6449 34.3655 37.3551 34.0909C38.0748 33.8068 38.6193 33.3807 38.9886 32.8125C39.358 32.2348 39.5426 31.4962 39.5426 30.5966C39.5426 29.697 39.358 28.9536 38.9886 28.3665C38.6193 27.7699 38.0748 27.3248 37.3551 27.0312C36.6354 26.7282 35.75 26.5767 34.6989 26.5767H31.233V50H24.2017ZM40.5795 36.7045L47.8239 50H40.1534L33.0511 36.7045H40.5795Z" fill="#FF0000"/>
</svg>
